<?xml version="1.0" encoding="utf-8"?>
<!-- Generator: Adobe Illustrator 25.4.1, SVG Export Plug-In . SVG Version: 6.00 Build 0)  -->
<svg version="1.1" id="Layer_1" xmlns="http://www.w3.org/2000/svg" xmlns:xlink="http://www.w3.org/1999/xlink" x="0px" y="0px"
	 viewBox="0 0 1024 1024" style="enable-background:new 0 0 1024 1024;" xml:space="preserve">
<style type="text/css">
	.st0{fill:none;}
	.st1{fill:#333333;}
	.st2{fill:#C3996C;}
</style>
<rect class="st0" width="1024" height="1024"/>
<g id="Layer_1_00000175321790983622734250000002106535814222444435_">
	<g>
		<g>
			<g>
				<path class="st1" d="M190.53,596.4c2.9,2.3,5.1,5.1,6.8,8.5c1.7,3.4,2.5,7,2.5,10.8c0,4.8-1.2,9.2-3.7,13
					c-2.5,3.9-6,6.9-10.7,9.1s-10.2,3.3-16.6,3.3h-32.5c-1.6,0-2.9-1.3-2.9-2.9V549c0-1.6,1.3-2.9,2.9-2.9h31.2
					c6.5,0,12,1.1,16.5,3.2c4.5,2.1,8,5,10.2,8.7c2.3,3.6,3.4,7.7,3.4,12.3c0,5.6-1.5,10.3-4.6,14c-1.7,2-3.6,3.7-5.8,5.1
					c-1.9,1.2-2,4,0,5C188.43,594.8,189.53,595.6,190.53,596.4z M145.83,584.2c0,1.6,1.3,2.9,2.9,2.9h17.9c5.8,0,10.3-1.4,13.5-4.1
					c3.2-2.7,4.8-6.5,4.8-11.3s-1.6-8.6-4.8-11.3c-3.2-2.7-7.8-4.1-13.8-4.1h-17.6c-1.6,0-2.9,1.3-2.9,2.9V584.2z M182.23,626.5
					c3.5-2.9,5.2-7,5.2-12.1c0-5.3-1.8-9.4-5.5-12.5c-3.6-3-8.5-4.6-14.6-4.6h-18.6c-1.6,0-2.9,1.3-2.9,2.9v27.7
					c0,1.6,1.3,2.9,2.9,2.9h19C173.93,630.9,178.83,629.4,182.23,626.5z"/>
				<path class="st1" d="M229.23,637.6c-5.7-3.2-10.1-7.7-13.4-13.6c-3.2-5.9-4.8-12.7-4.8-20.4c0-7.6,1.7-14.4,5-20.2
					c3.3-5.9,7.8-10.4,13.6-13.5c5.7-3.1,12.1-4.7,19.2-4.7c7.1,0,13.5,1.6,19.2,4.7c5.7,3.1,10.2,7.6,13.6,13.4
					c3.4,5.8,5,12.6,5,20.3s-1.7,14.5-5.1,20.4c-3.4,5.9-8,10.4-13.8,13.6c-5.8,3.2-12.3,4.8-19.4,4.8
					C241.23,642.3,234.93,640.7,229.23,637.6z M260.83,628.3c3.9-2.1,7.1-5.2,9.5-9.4c2.4-4.2,3.6-9.3,3.6-15.3s-1.2-11.1-3.6-15.3
					c-2.4-4.2-5.5-7.3-9.3-9.3c-3.8-2-8-3.1-12.4-3.1c-4.6,0-8.7,1-12.5,3.1c-3.8,2-6.8,5.2-9.1,9.3c-2.3,4.1-3.4,9.3-3.4,15.3
					c0,6.1,1.1,11.2,3.3,15.4c2.2,4.2,5.2,7.3,8.9,9.3c3.7,2,7.8,3.1,12.3,3.1C252.73,631.4,256.93,630.4,260.83,628.3z"/>
				<path class="st1" d="M360.13,573.2c5.6,5.5,8.5,13.4,8.5,23.8v41.1c0,1.6-1.3,2.9-2.9,2.9h-6.4c-1.6,0-2.9-1.3-2.9-2.9v-39.4
					c0-7.5-1.9-13.2-5.6-17.1c-3.7-3.9-8.8-5.9-15.3-5.9c-6.6,0-11.8,2-15.6,6.1c-3.9,4.1-5.8,10-5.8,17.9v38.4
					c0,1.6-1.3,2.9-2.9,2.9h-6.6c-1.6,0-2.9-1.3-2.9-2.9v-68.9c0-1.6,1.3-2.9,2.9-2.9h6.6c1.6,0,2.9,1.3,2.9,2.9l0,0
					c0,2.5,2.9,3.9,4.8,2.3c1.6-1.3,3.3-2.5,5.3-3.4c4.2-2.1,8.9-3.1,14-3.1C347.13,565,354.53,567.7,360.13,573.2z"/>
				<path class="st1" d="M499.73,637.6c-5.7-3.2-10.1-7.7-13.4-13.6c-3.2-5.9-4.8-12.7-4.8-20.4c0-7.6,1.7-14.4,5-20.2
					c3.3-5.9,7.8-10.4,13.6-13.5c5.8-3.1,12.1-4.7,19.2-4.7c7.1,0,13.5,1.6,19.2,4.7c5.7,3.1,10.2,7.6,13.6,13.4
					c3.4,5.8,5,12.6,5,20.3s-1.7,14.5-5.1,20.4c-3.4,5.9-8,10.4-13.8,13.6s-12.3,4.8-19.4,4.8
					C511.73,642.3,505.43,640.7,499.73,637.6z M531.33,628.3c3.9-2.1,7.1-5.2,9.5-9.4c2.4-4.2,3.6-9.3,3.6-15.3s-1.2-11.1-3.5-15.3
					c-2.4-4.2-5.5-7.3-9.3-9.3s-8-3.1-12.4-3.1c-4.5,0-8.7,1-12.5,3.1c-3.8,2-6.8,5.2-9.1,9.3c-2.3,4.2-3.4,9.3-3.4,15.3
					c0,6.1,1.1,11.2,3.3,15.4c2.2,4.2,5.2,7.3,8.9,9.3c3.7,2,7.8,3.1,12.3,3.1C523.23,631.4,527.33,630.4,531.33,628.3z"/>
				<path class="st1" d="M634.83,570.4l-42.6,104.1c-0.5,1.1-1.5,1.8-2.7,1.8h-6.5c-2.1,0-3.5-2.1-2.7-4l12.6-30.9
					c0.3-0.7,0.3-1.5,0-2.2l-28-68.8c-0.8-1.9,0.6-4,2.7-4h7.4c1.2,0,2.3,0.7,2.7,1.9l20,51.6c1,2.5,4.5,2.5,5.5,0l19.8-51.6
					c0.4-1.1,1.5-1.9,2.7-1.9h6.4C634.13,566.4,635.53,568.5,634.83,570.4z"/>
				<path class="st1" d="M647.53,583.3c3.1-5.8,7.3-10.2,12.8-13.4c5.4-3.2,11.4-4.8,18.1-4.8c6.5,0,12.2,1.4,17,4.2
					c2.2,1.3,4.2,2.8,5.9,4.4c1.8,1.8,4.9,0.4,4.9-2.2v-2.3c0-1.6,1.3-2.9,2.9-2.9h6.7c1.6,0,2.9,1.3,2.9,2.9v68.9
					c0,1.6-1.3,2.9-2.9,2.9h-6.7c-1.6,0-2.9-1.3-2.9-2.9v-2.5c0-2.5-3-3.9-4.9-2.2c-1.8,1.7-3.8,3.2-6.1,4.6
					c-4.9,2.9-10.5,4.3-17,4.3c-6.6,0-12.6-1.6-18-4.9s-9.6-7.9-12.7-13.8c-3.1-5.9-4.6-12.6-4.6-20.2
					C642.83,595.8,644.43,589.1,647.53,583.3z M702.73,588.9c-2.3-4.2-5.3-7.4-9.2-9.6s-8.1-3.3-12.8-3.3s-8.9,1.1-12.7,3.3
					s-6.9,5.4-9.1,9.5c-2.2,4.1-3.4,9.1-3.4,14.7c0,5.7,1.1,10.7,3.4,14.9c2.3,4.2,5.3,7.5,9.1,9.7s8,3.3,12.7,3.3s8.9-1.1,12.8-3.3
					c3.9-2.2,6.9-5.5,9.2-9.7s3.4-9.2,3.4-14.8S705.03,593.1,702.73,588.9z"/>
				<path class="st1" d="M786.13,569.4c2.3,1.3,4.2,2.8,6,4.4c1.8,1.7,4.9,0.4,4.9-2.2v-2.3c0-1.6,1.3-2.9,2.9-2.9h6.7
					c1.6,0,2.9,1.3,2.9,2.9v73.5c0,6.8-1.5,12.9-4.4,18.2c-2.9,5.3-7.1,9.5-12.5,12.5s-11.7,4.5-18.9,4.5c-9.8,0-18-2.3-24.5-7
					c-5.5-3.9-9.1-9-10.8-15.2c-0.5-1.9,0.9-3.7,2.8-3.7h6.6c1.2,0,2.2,0.8,2.7,1.9c1.5,3.7,4.1,6.7,7.8,9.1
					c4.3,2.8,9.4,4.2,15.4,4.2c6.8,0,12.4-2.1,16.7-6.4s6.5-10.3,6.5-18v-7.2c0-2.5-3.1-3.9-4.9-2.1c-1.7,1.7-3.8,3.2-6,4.6
					c-4.8,2.9-10.5,4.4-16.9,4.4c-6.6,0-12.7-1.6-18.1-4.9c-5.4-3.3-9.7-7.9-12.8-13.8c-3.1-5.9-4.6-12.6-4.6-20.2
					c0-7.6,1.5-14.3,4.6-20.1c3.1-5.8,7.3-10.2,12.8-13.4c5.4-3.2,11.4-4.8,18.1-4.8C775.63,565.1,781.23,566.5,786.13,569.4z
					 M793.63,588.9c-2.3-4.2-5.3-7.4-9.2-9.6s-8.1-3.3-12.8-3.3s-8.9,1.1-12.7,3.3s-6.9,5.4-9.1,9.5c-2.2,4.1-3.4,9.1-3.4,14.7
					c0,5.7,1.1,10.7,3.4,14.9c2.3,4.2,5.3,7.5,9.1,9.7s8,3.3,12.7,3.3s8.9-1.1,12.8-3.3c3.9-2.2,6.9-5.5,9.2-9.7s3.4-9.2,3.4-14.8
					C797.03,598,795.83,593.1,793.63,588.9z"/>
				<path class="st1" d="M894.23,608.4h-53.8c-1.8,0-3.2,1.7-2.9,3.5c1,5.7,3.3,10.3,7.2,13.8c4.6,4.1,10.2,6.2,16.7,6.2
					c5.4,0,9.8-1.2,13.4-3.8c3-2.1,5.3-4.9,6.8-8.2c0.5-1.1,1.5-1.8,2.7-1.8h7.2c2.1,0,3.5,2.1,2.7,4.1c-2.2,5.4-5.8,9.8-10.6,13.5
					c-6,4.5-13.5,6.8-22.4,6.8c-7.1,0-13.4-1.6-19-4.8c-5.6-3.2-10-7.7-13.2-13.6c-3.2-5.9-4.8-12.7-4.8-20.4
					c0-7.7,1.5-14.5,4.6-20.3s7.4-10.3,13-13.4c5.6-3.1,12-4.7,19.3-4.7c7.1,0,13.4,1.5,18.8,4.6c5.5,3.1,9.7,7.3,12.6,12.8
					c3,5.4,4.4,11.5,4.4,18.4c0,1.5-0.1,3.1-0.2,4.7C897.13,607.1,895.83,608.4,894.23,608.4z M881.43,586.1c-2.1-3.4-4.9-6-8.5-7.8
					s-7.6-2.7-11.9-2.7c-6.3,0-11.6,2-16,6c-3.7,3.3-6,7.7-7.1,13.1c-0.4,1.8,1,3.5,2.9,3.5h40.6c1.8,0,3.1-1.5,2.9-3.3
					C884.03,591.6,883.03,588.7,881.43,586.1z"/>
			</g>
			<path class="st1" d="M477.23,546h-6.8c-1.2,0-2.3,0.8-2.8,1.9l-26.4,72.5c-0.9,2.6-4.6,2.6-5.5,0l-20.2-53.4
				c-0.4-1-1.3-1.7-2.4-1.7h-7.4c-1.8,0-3,1.8-2.4,3.4l27.1,70.4c0.4,1.1,1.5,1.9,2.7,1.9h10.3c1.2,0,2.3-0.8,2.7-1.9l33.7-89.2
				C480.63,548.1,479.23,546,477.23,546z"/>
		</g>
		<g>
			<path class="st2" d="M162.13,695.7l-10.8,28c-0.2,0.4-0.5,0.7-1,0.7h-4.4c-0.4,0-0.8-0.3-1-0.7l-10.8-28c-0.3-0.7,0.2-1.4,1-1.4
				h3.1c0.4,0,0.8,0.3,1,0.7l7.9,21.6c0.3,0.9,1.7,0.9,2,0l7.9-21.6c0.1-0.4,0.5-0.7,1-0.7h3
				C161.93,694.3,162.43,695.1,162.13,695.7z"/>
			<path class="st2" d="M193.63,718.2h-11.4c-0.5,0-0.8,0.3-1,0.7l-1.7,4.8c-0.2,0.4-0.5,0.7-1,0.7h-3c-0.7,0-1.2-0.7-1-1.4l10.3-28
				c0.2-0.4,0.5-0.7,1-0.7h4.3c0.5,0,0.8,0.3,1,0.7l10.3,28c0.2,0.7-0.3,1.4-1,1.4h-3c-0.5,0-0.8-0.3-1-0.7l-1.7-4.8
				C194.43,718.5,194.03,718.2,193.63,718.2z M192.43,712.8l-3.5-9.8c-0.3-0.9-1.7-0.9-2,0l-3.5,9.8c-0.2,0.7,0.3,1.4,1,1.4h7
				C192.13,714.2,192.63,713.5,192.43,712.8z"/>
			<path class="st2" d="M215.93,701.4c1.4-2.3,3.3-4.2,5.7-5.5s5-2,7.9-2c3.3,0,6.2,0.8,8.8,2.4c2.1,1.3,3.7,3,4.8,5.1
				c0.4,0.7-0.1,1.5-0.9,1.5h-3.8c-0.4,0-0.7-0.2-0.9-0.5c-0.8-1.3-1.8-2.3-3-3c-1.4-0.8-3.1-1.2-4.9-1.2c-2,0-3.8,0.5-5.4,1.3
				c-1.6,0.9-2.8,2.2-3.7,3.9c-0.9,1.7-1.3,3.6-1.3,5.8c0,2.2,0.4,4.2,1.3,5.8c0.9,1.7,2.2,3,3.7,3.9c1.5,0.9,3.4,1.4,5.4,1.4
				c1.9,0,3.5-0.4,4.9-1.2c1.2-0.7,2.3-1.7,3-3c0.2-0.3,0.5-0.5,0.9-0.5h3.8c0.8,0,1.3,0.9,0.9,1.5c-1.2,2.1-2.8,3.9-4.8,5.1
				c-2.6,1.6-5.5,2.3-8.8,2.3c-2.9,0-5.5-0.7-7.9-2c-2.4-1.3-4.3-3.1-5.7-5.5c-1.4-2.3-2.1-5-2.1-7.9
				C213.83,706.4,214.53,703.7,215.93,701.4z"/>
			<path class="st2" d="M276.43,718.2h-11.4c-0.4,0-0.9,0.3-1,0.7l-1.7,4.8c-0.1,0.4-0.6,0.7-1,0.7h-3c-0.7,0-1.2-0.7-1-1.4l10.3-28
				c0.1-0.4,0.6-0.7,1-0.7h4.4c0.4,0,0.9,0.3,1,0.7l10.3,28c0.2,0.7-0.3,1.4-1,1.4h-3.1c-0.4,0-0.9-0.3-1-0.7l-1.7-4.8
				C277.33,718.5,276.83,718.2,276.43,718.2z M275.23,712.8l-3.5-9.8c-0.3-0.9-1.7-0.9-2,0l-3.5,9.8c-0.2,0.7,0.3,1.4,1,1.4h7.1
				C275.03,714.2,275.53,713.5,275.23,712.8z"/>
			<path class="st2" d="M318.23,695.4v2c0,0.6-0.5,1-1.1,1h-6.1c-0.6,0-1.1,0.5-1.1,1v24c0,0.6-0.5,1-1.1,1h-2.9
				c-0.6,0-1.1-0.5-1.1-1v-24c0-0.6-0.5-1-1.1-1h-6.1c-0.6,0-1.1-0.5-1.1-1v-2c0-0.6,0.5-1,1.1-1h19.4
				C317.73,694.3,318.23,694.8,318.23,695.4z"/>
			<path class="st2" d="M337.23,695.4v28c0,0.6-0.5,1-1.1,1h-2.9c-0.6,0-1.1-0.5-1.1-1v-28c0-0.6,0.5-1,1.1-1h2.9
				C336.73,694.3,337.23,694.8,337.23,695.4z"/>
			<path class="st2" d="M358.93,722.7c-2.4-1.3-4.3-3.1-5.7-5.5c-1.4-2.4-2.1-5-2.1-7.9c0-2.9,0.7-5.6,2.1-7.9s3.3-4.2,5.7-5.5
				s5-2,7.9-2s5.6,0.7,7.9,2c2.4,1.3,4.3,3.1,5.7,5.5c1.4,2.3,2.1,5,2.1,7.9c0,2.9-0.7,5.6-2.1,7.9c-1.4,2.4-3.3,4.2-5.7,5.5
				s-5.1,2-7.9,2C363.93,724.7,361.33,724.1,358.93,722.7z M372.23,719.1c1.6-0.9,2.8-2.2,3.7-3.9c0.9-1.7,1.4-3.6,1.4-5.9
				c0-2.2-0.4-4.2-1.4-5.8c-0.9-1.7-2.1-3-3.7-3.9c-1.6-0.9-3.4-1.3-5.4-1.3s-3.9,0.5-5.4,1.3c-1.6,0.9-2.8,2.2-3.7,3.9
				c-0.9,1.7-1.4,3.6-1.4,5.8c0,2.2,0.4,4.2,1.4,5.9c0.9,1.7,2.1,3,3.7,3.9c1.6,0.9,3.4,1.4,5.4,1.4
				C368.83,720.4,370.63,720,372.23,719.1z"/>
			<path class="st2" d="M420.53,724.4h-3.4c-0.4,0-0.7-0.2-0.9-0.5l-12.9-19.1c-0.6-0.9-2-0.5-2,0.6v18c0,0.6-0.5,1-1.1,1h-2.8
				c-0.6,0-1.1-0.5-1.1-1v-28c0-0.6,0.5-1,1.1-1h3.4c0.4,0,0.7,0.2,0.9,0.5l12.9,19.1c0.6,0.9,2,0.5,2-0.6v-17.9c0-0.6,0.5-1,1.1-1
				h2.9c0.6,0,1.1,0.5,1.1,1v28C421.63,723.9,421.13,724.4,420.53,724.4z"/>
			<path class="st2" d="M462.13,723.6c-1.6-0.7-3-1.7-3.9-3c-0.7-1-1.2-2.1-1.3-3.4c-0.1-0.6,0.4-1.2,1.1-1.2h3.3
				c0.5,0,0.9,0.3,1,0.8c0.2,1,0.7,1.8,1.5,2.5c0.9,0.8,2.2,1.2,3.9,1.2c1.7,0,3.1-0.4,4.1-1.2s1.5-1.9,1.5-3.2c0-1-0.3-1.8-0.9-2.5
				c-0.6-0.6-1.4-1.1-2.3-1.5c-0.9-0.4-2.1-0.7-3.7-1.1c-2-0.5-3.6-1-4.9-1.6c-1.3-0.5-2.3-1.4-3.2-2.5c-0.9-1.1-1.3-2.6-1.3-4.5
				c0-1.7,0.4-3.2,1.3-4.5s2.1-2.3,3.7-3s3.4-1,5.5-1c3,0,5.4,0.7,7.3,2.2c1.6,1.2,2.6,2.8,3,4.7c0.1,0.6-0.4,1.3-1,1.3h-3.5
				c-0.5,0-0.9-0.3-1-0.7c-0.2-0.8-0.7-1.5-1.5-2.1c-1-0.8-2.3-1.2-3.9-1.2c-1.5,0-2.6,0.4-3.5,1.1s-1.4,1.8-1.4,3.1
				c0,0.9,0.3,1.7,0.9,2.3c0.6,0.6,1.3,1.1,2.2,1.4s2.1,0.7,3.6,1.1c2,0.5,3.7,1.1,5,1.6s2.4,1.4,3.3,2.5c0.9,1.1,1.4,2.7,1.4,4.6
				c0,1.5-0.4,3-1.3,4.3s-2.1,2.5-3.7,3.3s-3.5,1.2-5.7,1.2C465.63,724.7,463.73,724.4,462.13,723.6z"/>
			<path class="st2" d="M498.23,699.3v6.8c0,0.6,0.5,1,1.1,1h8.5c0.6,0,1.1,0.5,1.1,1v2c0,0.6-0.5,1-1.1,1h-8.5
				c-0.6,0-1.1,0.5-1.1,1v7.1c0,0.6,0.5,1,1.1,1h9.8c0.6,0,1.1,0.5,1.1,1v2c0,0.6-0.5,1-1.1,1h-14.9c-0.6,0-1.1-0.5-1.1-1v-28
				c0-0.6,0.5-1,1.1-1h14.9c0.6,0,1.1,0.5,1.1,1v2c0,0.6-0.5,1-1.1,1h-9.8C498.63,698.3,498.23,698.8,498.23,699.3z"/>
			<path class="st2" d="M540.93,723.9l-6.5-11c-0.2-0.3-0.5-0.5-0.9-0.5h-2.2c-0.6,0-1.1,0.5-1.1,1v10c0,0.6-0.5,1-1.1,1h-2.9
				c-0.6,0-1.1-0.5-1.1-1v-28c0-0.6,0.5-1,1.1-1h9.6c2.4,0,4.4,0.4,6,1.2c1.6,0.8,2.9,1.9,3.7,3.2c0.8,1.4,1.2,2.9,1.2,4.5
				c0,2-0.6,3.7-1.8,5.4c-1,1.3-2.3,2.3-4.1,2.9c-0.6,0.2-0.9,0.9-0.5,1.5l6,9.8c0.4,0.7-0.1,1.6-0.9,1.6h-3.5
				C541.43,724.4,541.13,724.2,540.93,723.9z M530.23,707.4c0,0.6,0.5,1,1.1,1h4.5c1.9,0,3.3-0.5,4.3-1.4c1-0.9,1.4-2.2,1.4-3.7
				s-0.5-2.8-1.4-3.7c-0.9-0.9-2.4-1.3-4.3-1.3h-4.5c-0.6,0-1.1,0.5-1.1,1V707.4z"/>
			<path class="st2" d="M588.03,695.7l-10.8,28c-0.2,0.4-0.5,0.7-1,0.7h-4.4c-0.4,0-0.8-0.3-1-0.7l-10.8-28c-0.3-0.7,0.2-1.4,1-1.4
				h3.1c0.5,0,0.9,0.3,1,0.7l7.9,21.6c0.3,0.9,1.7,0.9,2,0l7.9-21.6c0.1-0.4,0.5-0.7,1-0.7h3
				C587.83,694.3,588.33,695.1,588.03,695.7z"/>
			<path class="st2" d="M606.73,695.4v28c0,0.6-0.5,1-1.1,1h-2.9c-0.6,0-1.1-0.5-1.1-1v-28c0-0.6,0.5-1,1.1-1h2.9
				C606.23,694.3,606.73,694.8,606.73,695.4z"/>
			<path class="st2" d="M622.63,701.4c1.4-2.3,3.3-4.2,5.7-5.5s5-2,7.9-2c3.3,0,6.2,0.8,8.8,2.4c2.1,1.3,3.7,3,4.8,5.1
				c0.4,0.7-0.1,1.5-0.9,1.5h-3.8c-0.4,0-0.7-0.2-0.9-0.5c-0.8-1.3-1.8-2.3-3-3c-1.4-0.8-3.1-1.2-4.9-1.2c-2,0-3.9,0.5-5.5,1.3
				c-1.6,0.9-2.8,2.2-3.7,3.9c-0.9,1.7-1.4,3.6-1.4,5.8c0,2.2,0.5,4.2,1.4,5.8c0.9,1.7,2.1,3,3.7,3.9c1.6,0.9,3.4,1.4,5.5,1.4
				c1.9,0,3.5-0.4,4.9-1.2c1.2-0.7,2.3-1.7,3-3c0.2-0.3,0.5-0.5,0.9-0.5h3.8c0.8,0,1.3,0.9,0.9,1.5c-1.2,2.1-2.8,3.9-4.8,5.1
				c-2.6,1.6-5.5,2.3-8.8,2.3c-2.9,0-5.5-0.7-7.9-2c-2.4-1.3-4.3-3.1-5.7-5.5c-1.4-2.3-2.1-5-2.1-7.9
				C620.53,706.4,621.23,703.7,622.63,701.4z"/>
			<path class="st2" d="M670.43,699.3v6.8c0,0.6,0.5,1,1.1,1h8.5c0.6,0,1.1,0.5,1.1,1v2c0,0.6-0.5,1-1.1,1h-8.6
				c-0.6,0-1.1,0.5-1.1,1v7.1c0,0.6,0.5,1,1.1,1h9.8c0.6,0,1.1,0.5,1.1,1v2c0,0.6-0.5,1-1.1,1h-14.8c-0.6,0-1.1-0.5-1.1-1v-28
				c0-0.6,0.5-1,1.1-1h14.9c0.6,0,1.1,0.5,1.1,1v2c0,0.6-0.5,1-1.1,1h-9.9C670.93,698.3,670.43,698.8,670.43,699.3z"/>
			<path class="st2" d="M702.03,723.6c-1.7-0.7-3-1.7-3.9-3c-0.7-1-1.2-2.1-1.3-3.4c-0.1-0.6,0.4-1.2,1.1-1.2h3.3
				c0.5,0,0.9,0.3,1,0.8c0.2,1,0.7,1.8,1.5,2.5c0.9,0.8,2.2,1.2,3.9,1.2s3.1-0.4,4.1-1.2s1.5-1.9,1.5-3.2c0-1-0.3-1.8-0.9-2.5
				c-0.6-0.6-1.4-1.1-2.3-1.5c-0.9-0.4-2.2-0.7-3.7-1.1c-2-0.5-3.6-1-4.9-1.6c-1.3-0.6-2.3-1.4-3.2-2.5c-0.9-1.1-1.3-2.6-1.3-4.5
				c0-1.7,0.4-3.2,1.3-4.5c0.9-1.3,2.1-2.3,3.7-3c1.6-0.7,3.4-1,5.5-1c3,0,5.4,0.7,7.3,2.2c1.6,1.2,2.6,2.8,3,4.7
				c0.1,0.6-0.4,1.3-1,1.3h-3.5c-0.5,0-0.9-0.3-1-0.7c-0.2-0.8-0.7-1.5-1.5-2.1c-1-0.8-2.3-1.2-3.8-1.2s-2.6,0.4-3.5,1.1
				s-1.4,1.8-1.4,3.1c0,0.9,0.3,1.7,0.9,2.3c0.6,0.6,1.3,1.1,2.2,1.4c0.9,0.4,2.1,0.7,3.6,1.1c2,0.5,3.7,1.1,5,1.6s2.4,1.4,3.3,2.5
				c0.9,1.1,1.3,2.7,1.3,4.6c0,1.5-0.4,3-1.3,4.3s-2.1,2.5-3.7,3.3c-1.6,0.8-3.5,1.2-5.7,1.2
				C705.53,724.7,703.63,724.4,702.03,723.6z"/>
		</g>
		<path class="st2" d="M807.93,490.4c-11.8-14.9-67.1-71.3-107.7-69.2c-30.2,1.6-60.9,13.5-81.6,22.1c-15.4,6.4-31.4,13.1-53.8,16.6
			c-41.8,6.4-69.9-4.1-97.7-17.1c-3.5-1.7-7.1-3.4-10.7-5.1c-24.5-11.7-49.8-23.8-85.7-26.5c-1.1-0.1-2.2-0.1-3.3-0.2
			c-67.3-9.6-98.7,24.2-137,67.2c30.9-45.4,58.8-94.6,141.5-83.4c1.5,0.2,3.1,0.3,4.6,0.4c36.7,3.6,63.4,16.4,87,27.7
			c30.4,14.5,56.7,27.1,98.8,20.7c19.6-3,34.2-8.9,48.3-14.8c0.6-0.2,1.2-0.5,1.7-0.8c20.6-8.6,48.8-25.8,88.4-24.4
			C742.73,405,795.93,475.2,807.93,490.4z"/>
		<path class="st2" d="M760.43,522.7c-4.2-13.5-59.6-50.1-87.4-49.9c-28.1,0.1-44.6,11.6-63.8,19.6c-14.3,6-29.2,12.2-49.9,15.4
			c-38.8,5.9-64.9-3.8-90.7-15.9c-3.3-1.6-6.6-3.1-9.9-4.7c-22.7-10.9-46.2-22.1-79.6-24.6c-1-0.1-2-0.2-3.1-0.2
			c-39.8-2.3-69.5,18.8-95.7,58.7c26.2-39.9,56.2-77,99.9-73.7c1.4,0.1,2.9,0.3,4.3,0.4c34.1,3.3,58.8,15.2,80.8,25.8
			c28.3,13.5,52.7,25.2,91.7,19.2c18.2-2.8,31.8-8.3,44.8-13.7c0.6-0.2,1.1-0.5,1.6-0.7c19.1-8,48.9-19.7,80.4-20.7
			C712.83,456.6,756.23,509.2,760.43,522.7z"/>
		<g>
			<g>
				<g>
					<path class="st2" d="M573.53,456.1l-92.1-173.2c-1.2-2.1-3.9-3.6-7.1-3.9c-3.2-0.3-6.1,0.8-7.8,2.8l-43.1,52.4l-8.6-7.1
						l43.1-52.4c4-4.9,10.4-7.4,17.3-6.8s12.8,4.2,15.9,9.6l93.6,176.1L573.53,456.1z"/>
				</g>
			</g>
			<g>
				<g>
					<path class="st2" d="M475.03,444.3l-77.1-136c-0.2-0.3-1.2-0.7-2.2-0.8c-1,0-2,0.3-2.3,0.8l-82.7,106.1l-13.2-2.3l84.7-112.1
						c3.1-4.2,8.3-6.6,13.9-6.4c5.6,0.2,10.7,2.9,13.5,7.3l77.2,136.2L475.03,444.3z"/>
				</g>
			</g>
			<g>
				<path class="st2" d="M669.83,424.2l-9.6-0.2c16.8-35.9,9.3-78-18.4-102.4c-33.7-29.8-88.1-25.8-121.2,8.9l-6.6-6.3
					c36.4-38.2,96.4-42.4,133.8-9.5C678.63,341.9,688.43,384.7,669.83,424.2z"/>
			</g>
			<g>
				<polygon class="st2" points="655.43,334.5 591.43,329.9 655.43,325.4 				"/>
			</g>
			<g>
				<polygon class="st2" points="659.43,338.3 567.33,333.7 659.43,329.2 				"/>
			</g>
			<g>
				<polygon class="st2" points="555.33,399.1 650.93,403.6 555.33,408.2 				"/>
			</g>
			<g>
				<polygon class="st2" points="520.93,342.8 572.63,347.4 520.93,351.9 				"/>
			</g>
			<g>
				<polygon class="st2" points="523.53,349.4 611.23,354 523.53,358.5 				"/>
			</g>
			<g>
				<polygon class="st2" points="554.23,394.4 618.33,398.9 554.23,403.5 				"/>
			</g>
			<g>
				<polygon class="st2" points="669.83,380.5 584.73,375.9 669.83,371.4 				"/>
			</g>
			<g>
				<polygon class="st2" points="669.93,377.8 559.13,373.2 669.93,368.7 				"/>
			</g>
		</g>
	</g>
</g>
</svg>
